<?xml version="1.0" standalone="no"?>
<!DOCTYPE svg PUBLIC "-//W3C//DTD SVG 20010904//EN"
 "http://www.w3.org/TR/2001/REC-SVG-20010904/DTD/svg10.dtd">
<svg version="1.0" xmlns="http://www.w3.org/2000/svg"
 width="1280.000000pt" height="1036.000000pt" viewBox="0 0 1280.000000 1036.000000"
 preserveAspectRatio="xMidYMid meet">

<g transform="translate(0.000000,1036.000000) scale(0.100000,-0.100000)"
fill="#000000" stroke="none">
<path d="M6190 10353 c-566 -30 -1069 -129 -1549 -305 -911 -332 -1688 -890
-2287 -1643 -651 -816 -1043 -1827 -1113 -2863 -5 -73 -11 -135 -14 -138 -4
-5 -393 -110 -1092 -297 -72 -19 -129 -39 -128 -43 4 -24 797 -2980 800 -2983
2 -3 275 68 607 157 331 89 610 162 620 162 9 0 16 -4 16 -10 0 -5 34 -60 77
-122 680 -1000 1687 -1729 2853 -2063 652 -187 1337 -245 1995 -169 1050 120
2013 541 2805 1225 165 143 452 434 581 589 710 854 1118 1866 1198 2969 5 73
12 135 14 138 3 2 279 78 613 168 335 90 608 167 607 172 -1 4 -163 613 -362
1353 -198 740 -377 1408 -397 1485 -21 77 -39 142 -40 144 -4 5 -5 4 -665
-173 -300 -80 -550 -146 -556 -146 -5 0 -36 39 -68 88 -839 1266 -2225 2110
-3740 2277 -270 29 -559 40 -775 28z m556 -313 c1289 -102 2444 -673 3295
-1630 151 -169 419 -523 406 -536 -7 -8 -1823 -494 -1843 -494 -9 0 -57 39
-107 86 -109 102 -325 267 -457 349 -362 224 -744 364 -1186 436 -166 27 -575
37 -750 19 -1008 -103 -1878 -662 -2389 -1534 -109 -187 -230 -465 -285 -661
-13 -44 -26 -83 -29 -87 -7 -8 -1826 -498 -1849 -498 -9 0 -11 13 -7 48 2 26
10 99 16 162 16 172 63 438 113 643 310 1264 1108 2346 2231 3022 143 85 423
227 600 303 458 196 1009 330 1520 371 158 12 570 13 721 1z m58 -2090 c419
-63 836 -226 1171 -458 124 -85 268 -203 258 -212 -4 -4 -179 -52 -388 -108
-397 -106 -3370 -902 -3818 -1022 -142 -39 -262 -70 -267 -70 -19 0 82 249
162 400 229 428 548 779 948 1043 145 95 397 224 550 280 203 75 448 134 650
156 52 6 111 13 130 15 95 11 471 -4 604 -24z m4979 -57 c90 -327 638 -2386
635 -2388 -2 -2 -409 -113 -903 -245 -1128 -302 -3928 -1053 -4665 -1250 -305
-82 -1313 -352 -2240 -600 -927 -248 -2112 -566 -2634 -706 -522 -140 -951
-253 -953 -251 -3 3 -99 359 -478 1775 -92 343 -165 625 -163 627 2 2 257 72
568 155 311 83 1251 335 2090 560 4215 1129 5226 1400 6905 1850 1001 269
1823 489 1826 489 4 1 9 -7 12 -16z m-529 -3080 c-34 -345 -65 -541 -129 -799
-277 -1124 -936 -2102 -1875 -2785 -551 -400 -1205 -686 -1885 -824 -363 -74
-674 -100 -1069 -92 -392 8 -705 50 -1076 142 -1063 267 -2004 884 -2676 1755
-89 116 -197 271 -191 276 3 3 333 93 733 200 401 108 817 219 924 248 l195
53 65 -62 c483 -460 1112 -752 1790 -829 156 -18 488 -21 641 -6 1187 120
2196 898 2606 2010 28 74 58 166 68 203 11 41 25 72 34 75 31 12 1816 490
1834 491 15 1 16 -6 11 -56z m-2233 -610 c-165 -447 -454 -856 -826 -1170
-344 -291 -794 -507 -1245 -597 -213 -43 -302 -51 -560 -50 -200 0 -271 4
-385 22 -425 66 -805 211 -1149 439 -130 86 -300 223 -290 232 5 4 502 139
1104 300 1304 349 2359 631 2935 786 231 63 426 114 432 114 8 1 3 -25 -16
-76z"/>
<path d="M6695 9616 c-13 -37 -98 -642 -98 -691 0 -117 43 -199 137 -263 74
-49 144 -67 266 -67 90 0 111 4 150 24 102 53 149 111 175 213 16 63 109 677
104 683 -3 2 -44 9 -93 16 -66 9 -90 9 -95 1 -4 -7 -29 -157 -55 -334 -51
-348 -65 -395 -120 -429 -43 -28 -162 -23 -203 7 -45 34 -73 82 -73 128 0 23
22 187 50 366 27 178 48 325 46 327 -1 1 -44 9 -95 16 -66 10 -94 11 -96 3z"/>
<path d="M6142 9611 c-11 -6 -10 -80 3 -417 8 -225 18 -442 21 -483 l6 -74 91
7 c50 3 92 8 95 11 3 2 -4 221 -14 485 l-18 480 -85 0 c-48 0 -92 -4 -99 -9z"/>
<path d="M5565 9558 c-60 -17 -111 -32 -112 -32 -1 -1 -13 -167 -27 -370 -14
-202 -27 -370 -29 -373 -3 -2 -101 132 -217 299 -117 167 -214 304 -215 305
-1 2 -39 -8 -86 -21 -46 -14 -102 -29 -125 -35 l-41 -11 130 -467 c72 -258
131 -469 131 -470 3 -3 178 46 184 51 7 7 -54 218 -137 474 -38 116 -66 212
-62 211 3 0 105 -140 225 -310 121 -170 225 -308 230 -306 6 2 35 10 63 17 47
12 53 17 58 44 2 17 16 188 30 381 15 192 28 351 30 353 5 5 10 -15 55 -213
23 -99 59 -248 82 -331 l41 -151 91 25 c50 13 93 26 95 28 2 2 -54 212 -125
466 -93 333 -134 463 -144 465 -8 1 -64 -12 -125 -29z"/>
<path d="M7877 9363 c-58 -113 -407 -834 -407 -841 0 -10 168 -87 175 -80 10
10 136 282 210 453 84 193 97 218 89 164 -11 -77 -74 -683 -74 -709 0 -25 7
-33 50 -55 27 -14 55 -25 61 -25 6 0 133 118 281 261 148 144 270 260 273 258
2 -3 -37 -79 -86 -169 -100 -183 -242 -461 -237 -465 10 -9 171 -86 174 -83 6
7 424 860 424 867 0 3 -51 32 -114 63 l-115 57 -266 -261 c-146 -143 -268
-259 -270 -256 -2 2 15 169 38 372 l43 368 -95 48 c-133 66 -137 67 -154 33z"/>
<path d="M4067 8962 c-147 -92 -266 -172 -265 -178 6 -22 503 -814 512 -814 7
0 438 265 539 332 8 5 -36 93 -69 136 -1 2 -89 -51 -195 -117 -140 -88 -195
-117 -201 -108 -65 99 -128 208 -124 215 3 5 75 53 161 106 147 92 154 99 143
119 -9 18 -26 46 -64 105 -2 2 -76 -42 -165 -97 l-163 -102 -18 23 c-28 38
-111 178 -107 181 2 2 83 52 179 112 96 59 180 113 187 119 9 8 3 26 -28 74
-22 34 -43 62 -47 61 -4 0 -127 -75 -275 -167z"/>
<path d="M3430 8421 c-90 -29 -139 -67 -292 -225 -87 -88 -157 -164 -155 -167
1 -3 157 -157 347 -342 l345 -337 70 71 70 70 -130 124 -130 124 55 58 c30 32
56 59 57 61 1 3 89 -23 195 -56 l193 -61 73 72 c39 39 72 74 72 78 0 4 -96 35
-214 70 l-214 63 5 87 c5 81 4 92 -21 143 -30 60 -83 114 -147 147 -46 23
-139 34 -179 20z m109 -208 c44 -33 71 -82 71 -128 0 -49 -27 -90 -114 -175
l-56 -54 -102 99 c-57 55 -105 101 -107 103 -7 4 131 142 164 164 37 24 105
19 144 -9z"/>
<path d="M2722 7569 c-86 -42 -131 -98 -251 -309 -86 -152 -101 -184 -90 -194
19 -17 829 -479 833 -475 1 2 15 27 31 54 15 28 36 64 47 82 l19 31 -134 76
c-74 42 -141 82 -150 89 -14 11 -9 24 44 117 70 123 92 192 91 278 -2 114 -61
199 -176 253 -88 42 -179 41 -264 -2z m186 -180 c100 -49 107 -129 22 -277
-29 -51 -55 -94 -59 -96 -5 -3 -254 134 -267 147 -11 11 114 203 145 224 43
29 101 30 159 2z"/>
<path d="M10787 7115 c-252 -68 -460 -125 -461 -127 -2 -3 366 -1381 375
-1405 2 -5 216 47 474 117 427 114 470 128 467 145 -2 11 -15 63 -29 116 l-25
95 -326 -87 c-180 -48 -330 -84 -333 -81 -9 11 -103 372 -97 377 2 3 123 36
269 75 145 39 269 73 275 75 8 2 2 37 -18 112 -17 59 -31 109 -33 111 -1 1
-125 -31 -276 -72 -151 -40 -277 -71 -281 -67 -12 11 -95 331 -87 336 4 3 150
43 325 90 174 46 318 86 320 88 2 2 -5 35 -15 73 -11 38 -24 88 -31 112 -6 23
-16 42 -23 41 -7 0 -218 -56 -470 -124z"/>
<path d="M10008 6907 l-148 -40 0 -46 c0 -25 -7 -244 -15 -486 -8 -242 -15
-479 -15 -527 0 -49 -3 -88 -7 -88 -5 0 -142 218 -307 485 -164 267 -302 485
-307 485 -13 0 -301 -78 -306 -83 -2 -3 190 -292 428 -643 238 -352 433 -640
433 -641 1 0 70 17 154 40 116 31 152 44 152 56 0 9 25 354 55 766 30 412 55
752 55 757 0 12 -10 10 -172 -35z"/>
<path d="M8581 6525 c-68 -19 -125 -35 -126 -37 -2 -2 79 -309 179 -683 101
-374 186 -692 189 -707 l7 -26 142 37 c124 33 143 41 140 57 -3 18 -328 1235
-358 1342 -10 38 -19 52 -32 51 -9 0 -73 -16 -141 -34z"/>
<path d="M7815 6329 c-207 -21 -426 -149 -498 -292 -69 -136 -48 -302 54 -412
97 -105 239 -151 529 -170 190 -12 267 -40 303 -110 30 -58 28 -124 -6 -168
-37 -49 -82 -74 -173 -98 -158 -41 -263 -1 -315 120 -14 30 -24 41 -34 37 -8
-3 -71 -20 -140 -38 -95 -25 -125 -36 -125 -49 0 -35 63 -139 113 -187 107
-100 223 -137 407 -129 133 6 217 28 338 87 195 97 284 261 242 449 -47 211
-207 316 -520 342 -288 23 -353 41 -397 108 -77 115 43 256 228 269 107 7 171
-24 211 -101 11 -23 22 -43 23 -45 3 -3 276 69 284 75 2 1 -12 36 -33 77 -86
176 -258 258 -491 235z"/>
<path d="M6813 6051 c-72 -20 -134 -39 -137 -42 -3 -2 54 -223 125 -489 102
-377 131 -500 131 -550 2 -129 -72 -208 -224 -239 -130 -27 -230 29 -278 156
-10 26 -73 255 -140 508 -68 253 -127 464 -131 469 -11 12 -288 -64 -283 -78
2 -6 62 -228 133 -494 75 -279 142 -510 160 -548 59 -126 187 -225 328 -255
122 -25 311 6 451 74 80 39 181 130 221 201 74 128 78 235 17 466 -106 408
-230 860 -235 859 -3 -1 -65 -18 -138 -38z"/>
<path d="M4961 5555 c-68 -19 -125 -36 -127 -38 -2 -2 81 -320 185 -708 169
-629 191 -704 207 -701 17 3 886 233 891 236 6 4 -62 226 -69 226 -6 0 -145
-36 -310 -81 -165 -44 -301 -79 -303 -77 -3 3 -315 1164 -315 1173 0 10 -36 3
-159 -30z"/>
<path d="M4107 5344 c-242 -52 -396 -188 -463 -410 -14 -45 -18 -91 -18 -194
0 -120 4 -149 33 -260 61 -235 121 -355 230 -465 115 -115 266 -173 421 -161
166 13 335 85 434 184 107 105 147 203 149 359 1 56 -2 105 -6 109 -7 7 -98
-13 -234 -52 l-52 -15 1 -68 c0 -38 -5 -85 -11 -104 -18 -55 -97 -119 -175
-145 -226 -74 -355 35 -450 381 -60 218 -70 351 -32 440 41 98 138 157 273
165 70 4 88 1 128 -18 49 -24 97 -79 122 -141 l15 -37 142 38 c123 32 141 40
138 56 -8 43 -79 153 -136 209 -130 127 -307 172 -509 129z"/>
<path d="M3211 5086 c-87 -24 -158 -49 -162 -57 -5 -8 -36 -132 -71 -276 -34
-145 -65 -263 -69 -263 -4 0 -94 91 -200 203 -107 111 -198 201 -204 201 -12
-2 -283 -73 -304 -80 -10 -3 86 -106 283 -303 l298 -298 -115 -409 c-63 -225
-113 -410 -112 -411 2 -3 325 84 329 89 2 1 34 126 70 277 37 151 69 278 72
282 2 4 95 -87 205 -202 111 -115 204 -209 208 -209 3 0 79 19 169 42 l164 43
-308 301 -308 301 83 304 c135 491 140 509 133 508 -4 0 -76 -20 -161 -43z"/>
<path d="M1605 4656 c-403 -110 -450 -125 -447 -142 7 -55 371 -1389 379
-1391 9 -3 895 231 924 245 14 6 13 19 -14 117 -17 61 -31 111 -31 112 -1 1
-149 -38 -330 -86 -235 -63 -329 -85 -332 -76 -3 7 -27 93 -53 191 -43 158
-46 180 -32 186 9 4 131 37 271 74 140 37 259 71 263 74 10 9 -43 220 -55 220
-5 0 -126 -31 -269 -70 -143 -38 -266 -70 -274 -70 -7 0 -16 8 -19 18 -19 61
-85 316 -83 319 2 1 149 41 328 89 178 48 325 87 326 88 1 1 -12 52 -29 114
-27 98 -34 112 -52 111 -12 -1 -223 -56 -471 -123z"/>
<path d="M9516 3496 c-37 -52 -68 -101 -71 -108 -3 -7 92 -147 211 -312 118
-164 213 -300 211 -302 -2 -2 -161 39 -353 91 -192 52 -354 95 -360 95 -6 0
-43 -47 -82 -104 l-72 -104 391 -272 c215 -149 396 -273 403 -276 10 -4 96
108 114 148 4 9 -165 126 -401 275 -109 69 -196 127 -195 129 2 1 170 -42 373
-96 203 -54 372 -95 375 -91 3 4 20 28 38 55 l34 47 -43 62 c-24 34 -123 174
-221 312 -97 137 -175 251 -173 253 1 2 88 -61 191 -140 176 -134 377 -278
387 -278 7 0 107 147 107 157 -1 4 -17 20 -38 34 -20 14 -197 136 -393 272
-196 136 -359 247 -362 247 -3 0 -35 -42 -71 -94z"/>
<path d="M8808 2599 l-77 -61 156 -196 c86 -108 185 -232 219 -275 71 -91 92
-146 75 -199 -22 -66 -120 -138 -187 -138 -60 0 -99 38 -320 315 l-218 272
-77 -60 -78 -61 33 -41 c18 -22 112 -139 208 -261 97 -121 197 -239 223 -262
95 -84 233 -96 360 -32 85 43 173 129 211 206 40 81 41 183 3 264 -20 42 -369
497 -443 577 -8 10 -29 -2 -88 -48z"/>
<path d="M4244 2233 c-32 -54 -142 -241 -246 -417 -103 -175 -188 -321 -188
-325 0 -3 12 -13 28 -21 15 -9 52 -30 83 -48 l55 -31 85 144 c46 80 88 145 93
145 5 0 48 -23 97 -51 147 -85 199 -102 294 -97 66 3 91 10 127 31 93 54 151
159 151 272 1 148 -62 222 -317 375 -94 56 -178 106 -187 111 -15 8 -27 -6
-75 -88z m233 -190 c136 -81 174 -134 153 -213 -25 -89 -81 -136 -156 -127
-43 4 -221 99 -230 122 -5 13 138 265 151 265 2 0 39 -21 82 -47z"/>
<path d="M7999 2045 l-86 -44 220 -435 220 -434 89 44 88 44 -217 428 c-119
235 -219 430 -222 434 -3 3 -45 -13 -92 -37z"/>
<path d="M4952 1429 c-73 -254 -130 -465 -125 -469 8 -8 151 -50 170 -50 5 0
30 69 53 153 24 83 47 159 51 168 8 15 15 15 81 -4 40 -11 75 -22 77 -23 2 -2
21 -90 42 -196 22 -105 42 -195 47 -199 6 -6 182 -59 195 -59 2 0 -13 82 -34
183 -22 100 -42 201 -45 223 l-6 42 54 16 c114 33 188 136 196 275 4 69 1 81
-25 131 -34 64 -102 120 -183 151 -61 23 -387 119 -404 119 -6 0 -71 -208
-144 -461z m397 225 c47 -14 96 -33 108 -42 54 -35 69 -122 33 -192 -24 -47
-70 -73 -125 -72 -35 1 -199 43 -211 54 -2 2 14 67 36 144 22 76 40 140 40
142 0 4 0 4 119 -34z"/>
<path d="M7587 1848 c-99 -26 -118 -34 -122 -52 -2 -11 -20 -178 -39 -370 -20
-192 -37 -350 -39 -352 -2 -2 -93 134 -202 303 -110 168 -202 310 -205 314 -3
4 -62 -6 -131 -22 l-126 -30 13 -57 c42 -179 214 -885 216 -888 5 -4 171 37
180 45 9 8 -37 201 -111 458 -34 117 -61 218 -61 225 0 7 95 -130 210 -304
145 -221 215 -318 227 -318 10 0 40 6 68 13 l50 13 42 378 c23 208 44 380 46
382 3 3 21 -82 41 -188 36 -185 105 -498 113 -507 2 -3 46 5 97 18 l94 22 -13
57 c-38 160 -207 859 -211 875 -3 9 -8 17 -12 16 -4 0 -60 -15 -125 -31z"/>
<path d="M5956 1599 c-8 -99 -38 -890 -34 -894 4 -4 480 -25 571 -25 l75 0 4
73 c3 39 4 73 3 75 -1 1 -392 21 -448 22 -9 0 2 252 12 262 3 4 89 3 191 -2
102 -4 186 -7 187 -6 0 0 3 35 5 76 l3 75 -150 6 c-83 4 -170 7 -194 8 l-44 1
6 116 c3 64 7 118 10 120 2 2 102 0 222 -6 121 -5 220 -9 221 -7 1 1 5 36 8
78 l7 76 -118 6 c-65 4 -211 10 -325 13 l-206 7 -6 -74z"/>
</g>
</svg>
